HIERARCHY
ROOT Hips
{
	OFFSET 0.000000 0.000000 0.000000
	CHANNELS 6 Xposition Yposition Zposition Xrotation Yrotation Zrotation
	JOINT LeftUpLeg_virtual
	{
		OFFSET 0.000000 0.000000 0.000000
		CHANNELS 3 Xrotation Yrotation Zrotation
		JOINT LeftUpLeg
		{
			OFFSET 13.026900 -6.336304 -1.092800
			CHANNELS 3 Xrotation Yrotation Zrotation
			JOINT LeftLeg
			{
				OFFSET 0.524474 -46.096886 9.782700
				CHANNELS 3 Xrotation Yrotation Zrotation
				JOINT LeftFoot
				{
					OFFSET -0.524474 -53.427422 -12.948200
					CHANNELS 3 Xrotation Yrotation Zrotation
					JOINT LeftToeBase
					{
						OFFSET 0.192200 -14.009700 16.364100
						CHANNELS 3 Xrotation Yrotation Zrotation
						JOINT LeftToe_End
						{
							OFFSET -1.784700 -0.561700 9.474800
							CHANNELS 3 Xrotation Yrotation Zrotation
							End Site
							{
								OFFSET 0 0 0
							}
						}
					}
				}
			}
		}
	}
	JOINT RightUpLeg_virtual
	{
		OFFSET 0.000000 0.000000 0.000000
		CHANNELS 3 Xrotation Yrotation Zrotation
		JOINT RightUpLeg
		{
			OFFSET -12.883000 -6.336304 -1.092800
			CHANNELS 3 Xrotation Yrotation Zrotation
			JOINT RightLeg
			{
				OFFSET -0.524587 -46.096825 9.782800
				CHANNELS 3 Xrotation Yrotation Zrotation
				JOINT RightFoot
				{
					OFFSET 0.524587 -53.427383 -12.948300
					CHANNELS 3 Xrotation Yrotation Zrotation
					JOINT RightToeBase
					{
						OFFSET -0.192200 -14.009700 16.364100
						CHANNELS 3 Xrotation Yrotation Zrotation
						JOINT RightToe_End
						{
							OFFSET 1.784700 -0.561700 9.474800
							CHANNELS 3 Xrotation Yrotation Zrotation
							End Site
							{
								OFFSET 0 0 0
							}
						}
					}
				}
			}
		}
	}
	JOINT Spine_virtual
	{
		OFFSET 0.000000 0.000000 0.000000
		CHANNELS 3 Xrotation Yrotation Zrotation
		JOINT Spine
		{
			OFFSET 0.072000 7.257294 -0.789700
			CHANNELS 3 Xrotation Yrotation Zrotation
			JOINT Spine1
			{
				OFFSET 0.000000 12.508769 -0.658067
				CHANNELS 3 Xrotation Yrotation Zrotation
				JOINT Spine1_split
				{
					OFFSET 0.000000 12.508769 -0.658067
					CHANNELS 3 Xrotation Yrotation Zrotation
					JOINT Spine2
					{
						OFFSET 0.000000 12.508769 -0.658067
						CHANNELS 3 Xrotation Yrotation Zrotation
						JOINT Neck_virtual
						{
							OFFSET 0.000000 0.000000 0.000000
							CHANNELS 3 Xrotation Yrotation Zrotation
							JOINT Neck
							{
								OFFSET 0.000000 14.033295 7.520400
								CHANNELS 3 Xrotation Yrotation Zrotation
								JOINT Head
								{
									OFFSET 0.000000 8.198502 5.703100
									CHANNELS 3 Xrotation Yrotation Zrotation
									JOINT HeadTop_End
									{
										OFFSET 0.000000 17.760803 13.332701
										CHANNELS 3 Xrotation Yrotation Zrotation
										End Site
										{
											OFFSET 0 0 0
										}
									}
								}
							}
						}
						JOINT LeftShoulder_virtual
						{
							OFFSET 0.000000 0.000000 0.000000
							CHANNELS 3 Xrotation Yrotation Zrotation
							JOINT LeftShoulder
							{
								OFFSET 6.292450 5.785301 -0.669000
								CHANNELS 3 Xrotation Yrotation Zrotation
								JOINT LeftShoulder_split
								{
									OFFSET 6.292450 5.785301 -0.669000
									CHANNELS 3 Xrotation Yrotation Zrotation
									JOINT LeftArm
									{
										OFFSET 13.907140 -6.093903 1.965100
										CHANNELS 3 Xrotation Yrotation Zrotation
										JOINT LeftForeArm
										{
											OFFSET 34.140198 0.000000 0.000000
											CHANNELS 3 Xrotation Yrotation Zrotation
											JOINT LeftHand
											{
												OFFSET 40.960209 0.000000 0.000000
												CHANNELS 3 Xrotation Yrotation Zrotation
												End Site
												{
													OFFSET 0 0 0
												}
											}
										}
									}
								}
							}
						}
						JOINT RightShoulder_virtual
						{
							OFFSET 0.000000 0.000000 0.000000
							CHANNELS 3 Xrotation Yrotation Zrotation
							JOINT RightShoulder
							{
								OFFSET -6.292450 5.785301 -0.669000
								CHANNELS 3 Xrotation Yrotation Zrotation
								JOINT RightShoulder_split
								{
									OFFSET -6.292450 5.785301 -0.669000
									CHANNELS 3 Xrotation Yrotation Zrotation
									JOINT RightArm
									{
										OFFSET -13.907140 -6.093903 1.965100
										CHANNELS 3 Xrotation Yrotation Zrotation
										JOINT RightForeArm
										{
											OFFSET -34.140198 0.000000 0.000000
											CHANNELS 3 Xrotation Yrotation Zrotation
											JOINT RightHand
											{
												OFFSET -40.960209 0.000000 0.000000
												CHANNELS 3 Xrotation Yrotation Zrotation
												End Site
												{
													OFFSET 0 0 0
												}
											}
										}
									}
								}
							}
						}
					}
				}
			}
		}
	}
}
MOTION
Frames: 7
Frame Time: 0.03333333
-0.711808 109.872795 3.535725 0.000000 0.000000 0.000000 -5.432776 -43.946530 -5.345703 -27.742799 2.770511 16.705014 30.596826 -14.221939 -0.720266 -5.773581 2.321171 -6.646079 -0.733323 -3.355755 -1.323881 0.000000 0.000000 0.000000 -7.760836 -41.478086 -5.528475 -3.047698 -12.896513 -16.939569 24.815493 -10.215868 -1.915560 -15.893405 -0.044340 21.578321 -4.261817 -0.132260 1.990888 0.000000 0.000000 0.000000 -4.629528 -45.207724 -4.657807 5.969647 6.007451 -0.442608 10.911839 9.304890 -3.338296 0.528696 -3.012952 0.897082 0.000000 0.000000 0.000000 11.475233 9.121631 -3.573515 -4.748193 -2.731079 -0.058207 -4.019527 24.515364 -1.466382 0.000000 0.000000 0.000000 11.824938 9.233764 -3.321492 2.000400 0.215469 -7.471320 -3.669967 -2.335199 -0.640514 -13.353203 4.897924 -62.271695 10.291732 -46.300575 6.316208 0.000000 0.000000 0.000000 11.389946 9.248118 -3.188444 2.933903 7.011695 9.741843 -0.874304 3.555535 1.207407 -0.532981 -24.566328 62.681350 -3.207788 44.410566 5.824574 0.000000 0.000000 0.000000 
-0.918188 109.664345 3.133934 0.000000 0.000000 0.000000 -5.499971 -44.224088 -5.087469 -27.833654 2.407617 15.797323 30.669697 -13.351994 -0.567474 -6.017955 2.700899 -5.426442 -1.048795 -3.288110 -1.576618 0.000000 0.000000 0.000000 -7.623486 -41.283470 -5.331246 -3.369684 -13.243661 -16.922808 25.738890 -10.856001 -1.751626 -16.706851 -0.683374 20.878814 -2.796822 0.031603 1.887315 0.000000 0.000000 0.000000 -5.009986 -44.834728 -4.825286 6.332022 5.985040 -0.518360 10.965346 9.242632 -3.394604 0.952636 -3.159616 1.088587 0.000000 0.000000 0.000000 11.313703 9.020956 -3.542119 -4.946624 -2.432781 -0.361429 -3.803833 24.487893 -1.465520 0.000000 0.000000 0.000000 11.765619 9.116816 -3.391073 2.071037 0.270364 -7.387049 -3.397128 -3.010479 -0.528809 -13.317857 4.625230 -62.034592 10.284268 -47.113190 6.337473 0.000000 0.000000 0.000000 11.477119 9.194083 -3.165523 3.025115 6.959502 9.909818 -0.744817 3.609039 0.944344 0.228329 -25.236871 62.584422 -2.808989 43.377135 5.663093 0.000000 0.000000 0.000000 
-1.003879 109.319046 2.461849 0.000000 0.000000 0.000000 -5.394302 -43.698403 -4.618906 -28.227493 1.584649 14.759708 31.197207 -12.825263 -0.152302 -5.420216 2.320505 -5.545702 -1.258584 -3.273204 -1.477466 0.000000 0.000000 0.000000 -7.371477 -40.875609 -4.905758 -4.160365 -13.085080 -17.141765 28.179279 -11.421781 -1.530199 -16.698933 -1.131596 20.959342 -3.761307 0.260442 1.703009 0.000000 0.000000 0.000000 -5.281011 -44.213741 -4.804146 6.893717 5.772643 -0.511697 10.955773 8.943363 -3.400021 1.206796 -2.834790 0.893550 0.000000 0.000000 0.000000 11.107269 8.724532 -3.505053 -5.509815 -2.036493 -0.701673 -3.428947 24.301219 -1.440048 0.000000 0.000000 0.000000 11.737800 8.796499 -3.386476 2.153158 0.189400 -7.381620 -3.224277 -3.623106 -0.513710 -13.082589 4.237327 -61.322893 10.492017 -47.821146 6.367158 0.000000 0.000000 0.000000 11.518402 8.939466 -3.119621 3.071627 6.832459 10.050335 -0.982503 3.950251 0.699432 1.136010 -25.522703 62.466007 -1.847064 42.755649 5.222644 0.000000 0.000000 0.000000 
-1.061578 108.951134 1.857864 0.000000 0.000000 0.000000 -5.114279 -42.719715 -4.084557 -29.013670 0.566354 13.802991 31.792277 -12.383402 0.333234 -4.143870 1.324960 -6.690287 -1.586346 -3.319948 -0.921755 0.000000 0.000000 0.000000 -6.980235 -40.172075 -4.340295 -4.897327 -12.373637 -17.202233 30.835391 -11.966987 -1.484967 -16.349979 -1.400519 21.588223 -6.344036 0.529182 1.583246 0.000000 0.000000 0.000000 -5.361672 -43.442602 -4.590140 7.497708 5.451685 -0.420818 10.874710 8.477926 -3.375643 0.942730 -2.011649 0.632764 0.000000 0.000000 0.000000 10.898409 8.286114 -3.487788 -6.413447 -1.600796 -1.046110 -2.920249 23.879974 -1.349872 0.000000 0.000000 0.000000 11.750049 8.330007 -3.346319 2.236298 0.015751 -7.491666 -3.332943 -4.025921 -0.689749 -12.620800 3.735658 -60.152165 10.835419 -48.169458 6.361397 0.000000 0.000000 0.000000 11.554145 8.534720 -3.076723 3.092226 6.655991 10.136469 -1.413513 4.416961 0.476330 2.135175 -25.018477 62.433489 -0.398458 42.549722 4.529565 0.000000 0.000000 0.000000 
-0.988353 108.502777 1.357685 0.000000 0.000000 0.000000 -4.554315 -41.440674 -3.519733 -30.215671 -0.251822 12.959840 32.175669 -11.473604 0.714917 -2.631787 0.226131 -7.920173 -2.047690 -3.429715 -0.016977 0.000000 0.000000 0.000000 -6.196599 -39.178515 -3.652763 -5.172739 -11.234334 -16.709967 32.466293 -13.022329 -1.745639 -16.276141 -1.699075 21.965453 -8.209337 0.880222 1.608459 0.000000 0.000000 0.000000 -5.148424 -42.517791 -4.213495 7.991891 5.113863 -0.291494 10.766146 7.938176 -3.339576 0.673943 -1.124577 0.484189 0.000000 0.000000 0.000000 10.717605 7.786508 -3.504755 -7.628075 -1.187634 -1.385683 -2.347983 23.151498 -1.176495 0.000000 0.000000 0.000000 11.802367 7.806410 -3.313180 2.285326 -0.235066 -7.680589 -3.632385 -4.409151 -1.070157 -12.077949 3.013112 -58.534113 11.270703 -48.033476 6.311925 0.000000 0.000000 0.000000 11.623791 8.081249 -3.060146 3.081204 6.489297 10.155277 -1.741958 4.829983 0.297458 3.028216 -23.750226 62.498710 1.416394 42.360772 3.607056 0.000000 0.000000 0.000000 
-0.860347 107.958115 1.222046 0.000000 0.000000 0.000000 -3.689387 -39.979867 -2.922562 -31.636617 -0.454337 12.187663 32.330151 -9.652896 0.894675 -1.307311 -0.418876 -8.453688 -2.364470 -3.575557 0.926256 0.000000 0.000000 0.000000 -4.965571 -37.691955 -2.865401 -4.807528 -10.079836 -15.524723 32.318929 -14.753130 -2.299643 -16.591689 -2.097516 21.863068 -8.467780 1.342176 1.737622 0.000000 0.000000 0.000000 -4.495593 -41.224823 -3.655929 8.283126 4.822793 -0.207753 10.660356 7.405930 -3.314537 0.559721 -0.536663 0.327071 0.000000 0.000000 0.000000 10.599242 7.308031 -3.531741 -9.158417 -0.852050 -1.718697 -1.776157 22.107137 -0.917586 0.000000 0.000000 0.000000 11.861738 7.299762 -3.315304 2.269850 -0.574123 -7.897802 -3.888947 -4.788250 -1.576009 -11.708295 2.016261 -56.557504 11.792067 -47.300143 6.230413 0.000000 0.000000 0.000000 11.755230 7.655624 -3.067860 3.016933 6.415416 10.093818 -1.950464 4.900404 0.231500 3.486424 -21.780654 62.525000 3.372344 41.839540 2.522256 0.000000 0.000000 0.000000 
-0.844113 107.358559 1.457581 0.000000 0.000000 0.000000 -2.472402 -38.371835 -2.284700 -33.195208 0.000428 11.336159 32.717187 -6.808329 0.923623 -0.378923 -0.276200 -7.892524 -2.391810 -3.657145 1.642874 0.000000 0.000000 0.000000 -3.296403 -35.594937 -2.022698 -3.879049 -9.316413 -13.750081 30.701745 -16.904312 -3.163952 -16.892530 -2.469445 21.629435 -8.137761 1.948552 1.818367 0.000000 0.000000 0.000000 -3.515026 -39.463337 -2.965663 8.335253 4.628115 -0.221759 10.563916 6.950190 -3.294256 0.437751 -0.371736 0.299731 0.000000 0.000000 0.000000 10.538003 6.904112 -3.527106 -10.991905 -0.582882 -2.115328 -1.298076 20.802180 -0.578423 0.000000 0.000000 0.000000 11.871758 6.879634 -3.356375 2.173527 -1.041174 -8.166943 -4.087035 -5.030585 -1.962701 -11.974226 0.708756 -54.328281 12.517841 -46.055276 6.209335 0.000000 0.000000 0.000000 11.947496 7.303605 -3.090878 2.931090 6.490560 9.912260 -2.050549 4.682740 0.172840 3.208268 -19.271843 62.507344 5.133949 41.117889 1.441779 0.000000 0.000000 0.000000 
